<mxfile host="app.diagrams.net" modified="2022-04-05T01:59:47.337Z" agent="5.0 (Windows NT 10.0; Win64; x64) AppleWebKit/537.36 (KHTML, like Gecko) Chrome/99.0.4844.84 Safari/537.36" etag="MX8f9K2cOEWPAhBIucot" version="16.4.6" type="github">
  <diagram id="5rKLN5VaaJpJkKfjL9rG" name="Page-1">
    <mxGraphModel dx="906" dy="783" grid="1" gridSize="10" guides="1" tooltips="1" connect="1" arrows="1" fold="1" page="1" pageScale="1" pageWidth="827" pageHeight="1169" math="0" shadow="0">
      <root>
        <mxCell id="0" />
        <mxCell id="1" parent="0" />
        <mxCell id="wnLnH2xmksnxviF4RUfi-3" value="バックログ&lt;br&gt;アイテム" style="shape=process;whiteSpace=wrap;html=1;backgroundOutline=1;fillColor=#dae8fc;strokeColor=#6c8ebf;" vertex="1" parent="1">
          <mxGeometry x="80" y="320" width="150" height="40" as="geometry" />
        </mxCell>
        <mxCell id="wnLnH2xmksnxviF4RUfi-4" value="バックログ&lt;br&gt;アイテム" style="shape=process;whiteSpace=wrap;html=1;backgroundOutline=1;fillColor=#dae8fc;strokeColor=#6c8ebf;" vertex="1" parent="1">
          <mxGeometry x="80" y="440" width="150" height="40" as="geometry" />
        </mxCell>
        <mxCell id="wnLnH2xmksnxviF4RUfi-5" value="バックログ&lt;br&gt;アイテム" style="shape=process;whiteSpace=wrap;html=1;backgroundOutline=1;fillColor=#dae8fc;strokeColor=#6c8ebf;" vertex="1" parent="1">
          <mxGeometry x="80" y="560" width="150" height="40" as="geometry" />
        </mxCell>
        <mxCell id="wnLnH2xmksnxviF4RUfi-6" value="作業アイテム" style="shape=process;whiteSpace=wrap;html=1;backgroundOutline=1;fillColor=#fff2cc;strokeColor=#d6b656;" vertex="1" parent="1">
          <mxGeometry x="264" y="320" width="150" height="20" as="geometry" />
        </mxCell>
        <mxCell id="wnLnH2xmksnxviF4RUfi-7" value="作業アイテム" style="shape=process;whiteSpace=wrap;html=1;backgroundOutline=1;fillColor=#fff2cc;strokeColor=#d6b656;" vertex="1" parent="1">
          <mxGeometry x="650" y="320" width="150" height="20" as="geometry" />
        </mxCell>
        <mxCell id="wnLnH2xmksnxviF4RUfi-8" value="作業アイテム" style="shape=process;whiteSpace=wrap;html=1;backgroundOutline=1;fillColor=#fff2cc;strokeColor=#d6b656;" vertex="1" parent="1">
          <mxGeometry x="460" y="320" width="150" height="20" as="geometry" />
        </mxCell>
        <mxCell id="wnLnH2xmksnxviF4RUfi-9" value="作業アイテム" style="shape=process;whiteSpace=wrap;html=1;backgroundOutline=1;fillColor=#fff2cc;strokeColor=#d6b656;" vertex="1" parent="1">
          <mxGeometry x="264" y="440" width="150" height="20" as="geometry" />
        </mxCell>
        <mxCell id="wnLnH2xmksnxviF4RUfi-10" value="作業アイテム" style="shape=process;whiteSpace=wrap;html=1;backgroundOutline=1;fillColor=#fff2cc;strokeColor=#d6b656;" vertex="1" parent="1">
          <mxGeometry x="264" y="470" width="150" height="20" as="geometry" />
        </mxCell>
        <mxCell id="wnLnH2xmksnxviF4RUfi-11" value="作業アイテム" style="shape=process;whiteSpace=wrap;html=1;backgroundOutline=1;fillColor=#fff2cc;strokeColor=#d6b656;" vertex="1" parent="1">
          <mxGeometry x="460" y="440" width="150" height="20" as="geometry" />
        </mxCell>
        <mxCell id="wnLnH2xmksnxviF4RUfi-12" value="作業アイテム" style="shape=process;whiteSpace=wrap;html=1;backgroundOutline=1;fillColor=#fff2cc;strokeColor=#d6b656;" vertex="1" parent="1">
          <mxGeometry x="264" y="560" width="150" height="20" as="geometry" />
        </mxCell>
        <mxCell id="wnLnH2xmksnxviF4RUfi-13" value="作業アイテム" style="shape=process;whiteSpace=wrap;html=1;backgroundOutline=1;fillColor=#fff2cc;strokeColor=#d6b656;" vertex="1" parent="1">
          <mxGeometry x="264" y="590" width="150" height="20" as="geometry" />
        </mxCell>
        <mxCell id="wnLnH2xmksnxviF4RUfi-14" value="作業アイテム" style="shape=process;whiteSpace=wrap;html=1;backgroundOutline=1;fillColor=#fff2cc;strokeColor=#d6b656;" vertex="1" parent="1">
          <mxGeometry x="264" y="620" width="150" height="20" as="geometry" />
        </mxCell>
        <mxCell id="wnLnH2xmksnxviF4RUfi-15" value="" style="endArrow=none;html=1;strokeWidth=2;rounded=0;strokeColor=#B3B3B3;" edge="1" parent="1">
          <mxGeometry width="50" height="50" relative="1" as="geometry">
            <mxPoint x="240" y="720" as="sourcePoint" />
            <mxPoint x="240" y="250" as="targetPoint" />
          </mxGeometry>
        </mxCell>
        <mxCell id="wnLnH2xmksnxviF4RUfi-16" value="" style="endArrow=none;html=1;strokeWidth=2;rounded=0;strokeColor=#B3B3B3;" edge="1" parent="1">
          <mxGeometry width="50" height="50" relative="1" as="geometry">
            <mxPoint x="810" y="310" as="sourcePoint" />
            <mxPoint x="80" y="310" as="targetPoint" />
          </mxGeometry>
        </mxCell>
        <mxCell id="wnLnH2xmksnxviF4RUfi-17" value="" style="endArrow=none;html=1;strokeWidth=2;rounded=0;strokeColor=#B3B3B3;" edge="1" parent="1">
          <mxGeometry width="50" height="50" relative="1" as="geometry">
            <mxPoint x="810" y="430" as="sourcePoint" />
            <mxPoint x="80.00000000000011" y="430" as="targetPoint" />
          </mxGeometry>
        </mxCell>
        <mxCell id="wnLnH2xmksnxviF4RUfi-18" value="" style="endArrow=none;html=1;strokeWidth=2;rounded=0;strokeColor=#B3B3B3;" edge="1" parent="1">
          <mxGeometry width="50" height="50" relative="1" as="geometry">
            <mxPoint x="810" y="550" as="sourcePoint" />
            <mxPoint x="80.00000000000011" y="550" as="targetPoint" />
          </mxGeometry>
        </mxCell>
        <mxCell id="wnLnH2xmksnxviF4RUfi-19" value="" style="endArrow=none;html=1;strokeWidth=2;rounded=0;strokeColor=#B3B3B3;" edge="1" parent="1">
          <mxGeometry width="50" height="50" relative="1" as="geometry">
            <mxPoint x="440" y="720" as="sourcePoint" />
            <mxPoint x="440" y="250" as="targetPoint" />
          </mxGeometry>
        </mxCell>
        <mxCell id="wnLnH2xmksnxviF4RUfi-20" value="" style="endArrow=none;html=1;strokeWidth=2;rounded=0;strokeColor=#B3B3B3;" edge="1" parent="1">
          <mxGeometry width="50" height="50" relative="1" as="geometry">
            <mxPoint x="630" y="715" as="sourcePoint" />
            <mxPoint x="630" y="245" as="targetPoint" />
          </mxGeometry>
        </mxCell>
        <mxCell id="wnLnH2xmksnxviF4RUfi-21" value="作業アイテム" style="shape=process;whiteSpace=wrap;html=1;backgroundOutline=1;fillColor=#fff2cc;strokeColor=#d6b656;" vertex="1" parent="1">
          <mxGeometry x="460" y="350" width="150" height="20" as="geometry" />
        </mxCell>
        <mxCell id="wnLnH2xmksnxviF4RUfi-22" value="作業アイテム" style="shape=process;whiteSpace=wrap;html=1;backgroundOutline=1;fillColor=#fff2cc;strokeColor=#d6b656;" vertex="1" parent="1">
          <mxGeometry x="264" y="500" width="150" height="20" as="geometry" />
        </mxCell>
        <mxCell id="wnLnH2xmksnxviF4RUfi-23" value="作業アイテム" style="shape=process;whiteSpace=wrap;html=1;backgroundOutline=1;fillColor=#fff2cc;strokeColor=#d6b656;" vertex="1" parent="1">
          <mxGeometry x="264" y="650" width="150" height="20" as="geometry" />
        </mxCell>
        <mxCell id="wnLnH2xmksnxviF4RUfi-24" value="未着手" style="text;html=1;strokeColor=none;fillColor=none;align=center;verticalAlign=middle;whiteSpace=wrap;rounded=0;fontSize=16;" vertex="1" parent="1">
          <mxGeometry x="293.5" y="260" width="91" height="30" as="geometry" />
        </mxCell>
        <mxCell id="wnLnH2xmksnxviF4RUfi-25" value="作業中" style="text;html=1;strokeColor=none;fillColor=none;align=center;verticalAlign=middle;whiteSpace=wrap;rounded=0;fontSize=16;" vertex="1" parent="1">
          <mxGeometry x="489.5" y="260" width="91" height="30" as="geometry" />
        </mxCell>
        <mxCell id="wnLnH2xmksnxviF4RUfi-26" value="完了" style="text;html=1;strokeColor=none;fillColor=none;align=center;verticalAlign=middle;whiteSpace=wrap;rounded=0;fontSize=16;" vertex="1" parent="1">
          <mxGeometry x="679.5" y="260" width="91" height="30" as="geometry" />
        </mxCell>
      </root>
    </mxGraphModel>
  </diagram>
</mxfile>
